<?xml version="1.0" encoding="UTF-8"?>
<svg width="150" height="150" viewBox="0 0 150 150" xmlns="http://www.w3.org/2000/svg">
  <!-- 要塞主体 -->
  <rect x="25" y="70" width="100" height="60" fill="#888888"/>
  
  <!-- 要塞城墙上部 -->
  <path d="M25 70 L25 60 L35 60 L35 70 L45 70 L45 60 L55 60 L55 70 L65 70 L65 60 L75 60 L75 70 L85 70 L85 60 L95 60 L95 70 L105 70 L105 60 L115 60 L115 70 L125 70" fill="#888888"/>
  
  <!-- 要塞左侧塔楼 -->
  <rect x="15" y="50" width="20" height="80" fill="#777777"/>
  <rect x="10" y="40" width="30" height="10" fill="#777777"/>
  <rect x="15" y="30" width="20" height="10" fill="#777777"/>
  
  <!-- 要塞右侧塔楼 -->
  <rect x="115" y="50" width="20" height="80" fill="#777777"/>
  <rect x="110" y="40" width="30" height="10" fill="#777777"/>
  <rect x="115" y="30" width="20" height="10" fill="#777777"/>
  
  <!-- 要塞门 -->
  <rect x="65" y="90" width="20" height="40" fill="#663300"/>
  <circle cx="70" cy="110" r="2" fill="#000000"/>
  
  <!-- 要塞窗户 -->
  <rect x="40" y="90" width="10" height="15" fill="#000066"/>
  <rect x="100" y="90" width="10" height="15" fill="#000066"/>
  
  <!-- 要塞底座 -->
  <rect x="10" y="130" width="130" height="10" fill="#555555"/>
</svg> 