<?xml version="1.0" encoding="UTF-8"?>
<svg width="100" height="120" viewBox="0 0 100 120" xmlns="http://www.w3.org/2000/svg">
  <!-- 盾牌外形 -->
  <path d="M50 10 
           C80 10 90 20 90 20 
           C90 20 95 60 50 110 
           C5 60 10 20 10 20 
           C10 20 20 10 50 10 Z" 
        fill="#0066cc" stroke="#003366" stroke-width="3"/>
  
  <!-- 盾牌边缘装饰 -->
  <path d="M50 15 
           C75 15 85 25 85 25 
           C85 25 90 60 50 105 
           C10 60 15 25 15 25 
           C15 25 25 15 50 15 Z" 
        fill="none" stroke="#99ccff" stroke-width="1"/>
  
  <!-- 盾牌中心图案 -->
  <circle cx="50" cy="50" r="20" fill="#003366"/>
  <path d="M40 50 L60 50 M50 40 L50 60" stroke="#99ccff" stroke-width="5"/>
  
  <!-- 盾牌反光效果 -->
  <path d="M30 25 Q40 30 35 45" stroke="#99ccff" stroke-width="2" fill="none"/>
  <path d="M70 25 Q60 30 65 45" stroke="#99ccff" stroke-width="2" fill="none"/>
  
  <!-- 盾牌底部装饰 -->
  <path d="M45 85 L55 85 L55 95 L50 100 L45 95 Z" fill="#003366"/>
</svg> 